<?xml version="1.0" standalone="no"?>
<!DOCTYPE svg PUBLIC "-//W3C//DTD SVG 20010904//EN"
 "http://www.w3.org/TR/2001/REC-SVG-20010904/DTD/svg10.dtd">
<svg version="1.0" xmlns="http://www.w3.org/2000/svg"
 width="260.000000pt" height="260.000000pt" viewBox="0 0 260.000000 260.000000"
 preserveAspectRatio="xMidYMid meet">
<metadata>
Created by potrace 1.14, written by Peter Selinger 2001-2017
</metadata>
<g transform="translate(0.000000,260.000000) scale(0.100000,-0.100000)"
fill="#000000" stroke="none">
<path d="M562 2378 c-28 -47 -58 -100 -66 -117 l-16 -30 -143 0 c-78 0 -148 0
-156 0 -11 -1 -12 -30 -6 -163 3 -90 8 -174 10 -188 4 -31 14 -114 20 -158 2
-18 6 -45 10 -60 3 -15 7 -36 9 -47 8 -41 47 -178 68 -238 38 -113 114 -255
209 -390 7 -10 55 21 63 40 3 7 -12 39 -33 70 -176 267 -261 576 -265 958 l-1
90 132 0 132 -1 48 83 c26 46 50 82 54 81 6 -3 45 -47 112 -127 26 -32 32 -34
97 -36 l70 -2 29 51 c16 28 41 63 56 78 l26 28 50 -40 50 -39 41 29 c47 35 98
50 148 46 19 -2 42 -4 51 -5 10 0 39 -16 67 -35 l50 -33 31 19 c17 11 31 23
31 27 0 3 9 12 20 19 18 11 24 9 45 -15 14 -16 37 -48 52 -73 15 -25 28 -47
30 -49 1 -2 32 -5 69 -6 l65 -2 71 81 c40 44 74 82 78 84 3 1 27 -35 53 -81
l48 -83 129 1 c87 0 131 -3 134 -11 4 -12 -1 -180 -8 -268 -6 -64 -35 -246
-41 -256 -2 -4 -7 -22 -10 -41 -19 -106 -109 -321 -185 -437 l-38 -60 27 -26
c15 -14 31 -26 37 -26 34 1 209 363 230 480 3 14 13 59 24 100 18 74 24 110
35 200 12 98 15 131 20 278 l7 152 -116 1 c-211 2 -193 -3 -224 54 -15 28 -30
52 -34 53 -5 2 -8 8 -8 13 0 5 -14 32 -32 60 l-32 52 -29 -34 c-119 -136 -181
-199 -196 -199 -9 1 -36 28 -61 62 -25 33 -59 76 -75 95 l-30 34 -59 -46 -59
-45 -33 19 c-18 11 -48 22 -66 25 -18 4 -46 8 -63 11 -34 5 -137 -20 -171 -41
-22 -15 -26 -14 -80 31 l-58 47 -39 -44 c-21 -24 -54 -67 -74 -95 -20 -30 -43
-53 -53 -53 -16 0 -68 53 -193 194 l-34 39 -51 -85z"/>
<path d="M1244 2206 c-35 -16 -84 -64 -84 -83 0 -22 -16 -15 -73 32 -44 35
-57 42 -66 31 -16 -19 -41 -94 -41 -122 0 -27 5 -26 -139 -26 l-94 0 7 -97 c3
-53 15 -134 25 -181 l20 -85 -25 30 c-45 54 -101 192 -119 290 -2 17 -7 48
-10 70 -3 22 -8 49 -10 60 -2 11 -4 25 -5 30 0 6 -14 -16 -30 -47 -17 -32 -38
-61 -47 -66 -10 -5 -44 -7 -77 -5 l-58 2 6 -97 c7 -108 23 -196 55 -289 12
-34 21 -65 21 -69 0 -4 -23 17 -51 47 l-52 54 6 -35 c3 -19 9 -46 12 -60 2
-14 7 -34 9 -45 9 -41 60 -173 93 -240 45 -91 116 -206 125 -203 14 6 128 120
128 130 0 5 -9 23 -20 38 -24 33 -21 36 45 44 28 3 66 8 85 11 19 2 52 6 74 9
21 3 40 7 43 10 3 2 -13 28 -34 58 l-39 53 28 50 c15 28 51 106 79 175 61 149
103 233 136 277 71 92 183 103 273 26 42 -36 78 -103 161 -303 29 -69 66 -149
81 -178 l29 -52 -30 -37 c-29 -35 -41 -60 -23 -49 4 2 28 1 52 -4 43 -8 161
-22 188 -23 18 0 14 -17 -13 -61 l-24 -40 22 -19 c12 -10 38 -34 58 -52 34
-31 38 -33 52 -17 44 49 165 314 181 394 2 13 11 51 19 86 l16 63 -48 -50
c-41 -45 -73 -68 -57 -42 9 13 57 192 61 226 2 17 7 72 11 122 l7 93 -62 -3
c-74 -3 -88 5 -119 67 -13 25 -27 46 -31 46 -4 0 -8 -18 -9 -41 -1 -22 -4 -44
-6 -48 -2 -3 -7 -27 -11 -51 -11 -81 -57 -210 -97 -272 -21 -33 -41 -58 -43
-56 -2 2 2 28 10 58 19 72 28 141 29 225 l1 70 -110 0 -110 0 -12 57 c-6 31
-19 68 -28 82 l-17 25 -55 -44 c-30 -25 -58 -45 -61 -45 -4 0 -13 12 -19 28
-28 61 -127 96 -189 68z"/>
<path d="M1301 1907 c1 -126 4 -117 -37 -106 -67 19 -128 -19 -173 -108 -20
-40 -71 -186 -71 -204 0 -5 24 -20 54 -34 58 -27 143 -103 192 -171 l29 -40
151 -1 c154 -1 191 -9 231 -49 8 -7 35 -30 61 -51 26 -21 49 -40 52 -43 3 -3
27 -24 55 -45 27 -22 59 -48 70 -59 35 -33 97 -76 104 -72 3 2 28 7 56 11 27
3 50 7 51 8 2 1 -61 57 -139 124 -205 176 -188 157 -170 193 8 17 13 33 12 35
-2 1 -34 6 -71 9 -37 4 -77 9 -90 11 -13 2 -40 6 -62 9 -42 5 -56 13 -41 24
10 7 65 77 79 99 4 7 -4 32 -17 55 -20 37 -56 115 -87 193 -5 11 -17 40 -27
65 -60 148 -113 213 -180 223 l-32 5 0 -81z m4 -209 c27 1 68 3 91 6 l41 5 -7
-42 c-3 -23 -18 -60 -32 -83 -15 -23 -31 -59 -37 -82 -8 -29 -18 -41 -35 -46
-30 -7 -76 9 -77 26 -2 32 -9 52 -37 96 -17 26 -33 67 -36 90 l-6 44 43 -7
c23 -4 64 -7 92 -7z m275 -253 c0 -5 -28 -23 -63 -39 -34 -15 -87 -47 -117
-69 -30 -23 -48 -32 -40 -21 58 75 197 174 212 151 4 -7 8 -16 8 -22z"/>
<path d="M963 1142 c-198 -158 -431 -359 -446 -385 -23 -40 -18 -113 9 -150
56 -77 179 -79 235 -4 9 12 64 89 122 170 l107 148 0 62 0 62 53 29 c28 17 81
47 117 68 l65 38 -107 0 -106 0 -49 -38z"/>
<path d="M1392 1174 c3 -3 55 -33 114 -67 l109 -63 1 -62 1 -62 120 -168 c96
-135 128 -171 161 -189 65 -33 139 -13 185 49 23 31 28 109 9 145 -10 19 -108
103 -296 258 -27 22 -67 57 -90 77 -23 21 -49 40 -58 43 -10 4 -18 10 -18 14
0 19 -58 31 -147 31 -53 0 -94 -2 -91 -6z"/>
<path d="M1173 1078 l-123 -70 0 -147 0 -146 33 -19 c17 -10 50 -29 72 -41 22
-12 63 -36 92 -53 l51 -30 39 20 c54 29 110 60 168 95 l50 29 0 138 c0 79 -4
144 -10 152 -10 14 -232 144 -244 143 -3 0 -61 -32 -128 -71z m128 -30 c3 -66
3 -141 -1 -153 -4 -11 -22 -4 -77 33 -39 26 -69 52 -65 57 7 10 119 71 135 74
4 0 7 -5 8 -11z"/>
<path d="M1550 642 c-36 -21 -106 -62 -156 -92 l-91 -53 -2 -176 c-1 -166 0
-174 15 -147 9 16 17 34 18 40 4 22 80 172 120 236 22 36 68 102 103 148 34
45 62 82 60 82 -1 0 -31 -17 -67 -38z"/>
</g>
</svg>
