<?xml version="1.0" standalone="no"?>
<!DOCTYPE svg PUBLIC "-//W3C//DTD SVG 20010904//EN"
 "http://www.w3.org/TR/2001/REC-SVG-20010904/DTD/svg10.dtd">
<svg version="1.0" xmlns="http://www.w3.org/2000/svg"
 width="514.000000pt" height="171.000000pt" viewBox="0 0 514.000000 171.000000"
 preserveAspectRatio="xMidYMid meet">

<g transform="translate(0.000000,171.000000) scale(0.100000,-0.100000)"
fill="#000000" stroke="none">
<path d="M365 1547 l-40 -72 -104 -3 -104 -3 6 -112 c7 -133 38 -322 67 -409
30 -89 113 -260 137 -281 17 -15 22 -16 32 -3 10 11 1 36 -42 123 -91 180
-137 364 -137 546 l0 77 85 0 85 0 30 48 c16 26 31 52 33 57 2 6 31 -16 65
-47 77 -74 96 -75 153 -8 23 28 47 50 52 50 6 0 21 -10 35 -22 l23 -23 39 23
c49 28 121 29 170 2 35 -18 35 -18 69 3 l34 21 46 -52 c27 -31 54 -52 66 -52
27 0 71 30 107 74 16 20 33 36 36 36 4 0 22 -25 40 -55 l33 -55 85 0 84 0 0
-89 c0 -174 -49 -371 -130 -526 -36 -69 -46 -95 -37 -104 21 -21 35 -11 66 42
85 148 140 350 156 567 3 47 8 104 11 128 l5 42 -105 0 -106 0 -42 74 -43 75
-77 -76 -77 -76 -55 59 -54 59 -40 -23 c-37 -21 -42 -21 -82 -7 -53 19 -92 19
-151 1 -45 -14 -48 -13 -84 12 l-37 27 -21 -30 c-12 -17 -37 -46 -55 -65 l-34
-34 -74 77 c-41 42 -75 77 -77 77 -1 0 -20 -33 -42 -73z"/>
<path d="M813 1441 c-17 -11 -36 -27 -41 -37 -9 -16 -13 -15 -50 15 l-41 32
-16 -55 -16 -56 -69 0 c-38 0 -71 -4 -74 -8 -5 -8 8 -132 20 -184 3 -18 1 -28
-6 -28 -18 0 -60 104 -78 193 -9 45 -18 84 -20 87 -2 2 -14 -10 -28 -28 -21
-26 -33 -32 -63 -32 -21 0 -40 -2 -43 -5 -8 -8 12 -145 32 -224 l19 -74 -35
34 c-19 18 -34 31 -34 28 0 -2 9 -36 19 -74 24 -85 71 -192 113 -259 l32 -49
38 41 c31 34 37 46 32 70 -7 33 -2 35 94 48 29 4 55 10 57 14 3 4 -5 19 -16
34 -25 32 -25 34 61 212 95 196 149 238 237 185 37 -23 60 -61 139 -229 53
-114 57 -126 46 -155 -6 -17 -11 -32 -9 -33 1 -1 35 -7 75 -12 41 -6 77 -13
80 -17 3 -3 1 -15 -6 -26 -17 -27 -7 -54 27 -79 34 -24 35 -23 84 76 34 68 67
155 82 219 l7 30 -31 -29 c-36 -35 -37 -32 -12 76 11 46 22 109 26 141 l7 57
-45 0 c-39 0 -49 4 -67 31 -12 16 -24 28 -26 26 -2 -2 -15 -46 -28 -99 -24
-94 -62 -185 -73 -174 -3 3 0 46 7 95 7 49 10 97 7 105 -5 12 -22 16 -76 16
l-69 0 -9 36 c-12 52 -35 64 -71 37 l-30 -22 -18 21 c-23 25 -67 48 -91 48
-10 0 -32 -9 -50 -19z"/>
<path d="M2190 1215 l0 -205 45 0 45 0 0 104 c0 109 10 136 48 136 44 -1 61
-47 62 -167 l0 -73 46 0 47 0 -5 127 -5 126 -32 29 c-35 31 -80 36 -121 13
-14 -8 -28 -14 -32 -15 -5 0 -8 29 -8 65 l0 65 -45 0 -45 0 0 -205z"/>
<path d="M3864 1406 c-14 -36 0 -51 46 -51 43 0 45 1 48 33 3 32 3 32 -43 32
-30 0 -47 -5 -51 -14z"/>
<path d="M1903 1394 c-96 -35 -145 -150 -113 -266 12 -44 73 -101 125 -118 40
-13 121 -9 168 9 24 9 27 16 27 56 l0 45 -42 -21 c-73 -37 -146 -21 -169 39
-6 15 -9 54 -7 86 4 49 9 63 32 83 34 29 92 31 146 3 l40 -20 0 45 c0 40 -3
47 -27 56 -47 18 -135 20 -180 3z"/>
<path d="M2593 1309 c-7 -7 -13 -26 -13 -42 0 -26 3 -29 23 -23 64 18 97 18
123 1 14 -9 24 -19 21 -22 -3 -2 -37 -13 -77 -23 -39 -10 -80 -26 -90 -35 -44
-40 -32 -123 21 -150 36 -19 63 -19 104 1 25 12 38 13 54 5 11 -6 33 -11 50
-11 l31 0 0 103 c0 119 -11 166 -42 186 -31 20 -189 27 -205 10z m155 -186 c3
-25 -2 -35 -22 -48 -41 -27 -85 0 -71 45 7 21 43 40 70 37 15 -1 21 -11 23
-34z"/>
<path d="M3063 1305 c-19 -8 -35 -10 -38 -4 -4 5 -24 9 -46 9 l-39 0 0 -151 0
-150 43 3 42 3 3 108 c3 104 4 108 27 117 29 11 51 5 59 -17 3 -8 9 -59 13
-114 l6 -99 42 0 c52 0 55 7 55 138 l0 92 34 0 c19 0 38 -6 43 -12 4 -7 10
-58 13 -113 l5 -100 43 -3 42 -3 0 126 c0 127 0 127 -29 156 -35 35 -65 37
-125 7 l-44 -21 -27 21 c-32 25 -76 28 -122 7z"/>
<path d="M3623 1304 c-20 -8 -34 -10 -38 -4 -3 6 -24 10 -46 10 l-39 0 0 -206
0 -205 43 3 42 3 3 51 3 51 64 -1 c54 -1 67 3 89 23 28 26 56 104 56 155 0 43
-36 111 -66 124 -32 15 -71 14 -111 -4z m58 -75 c18 -18 21 -30 17 -71 -6 -58
-21 -77 -71 -85 l-37 -6 0 81 c0 67 3 83 18 91 27 16 50 13 73 -10z"/>
<path d="M4111 1302 c-92 -49 -96 -212 -8 -276 22 -16 43 -21 91 -21 71 0 105
17 137 68 27 43 23 149 -6 189 -40 55 -149 75 -214 40z m124 -62 c28 -30 31
-108 6 -147 -24 -38 -52 -42 -82 -12 -18 18 -21 30 -17 84 2 35 10 70 17 79
18 22 54 20 76 -4z"/>
<path d="M4564 1306 c-19 -9 -37 -10 -45 -5 -8 5 -29 9 -46 9 l-33 0 0 -150 0
-150 39 0 39 0 4 104 c4 111 14 136 54 136 38 0 53 -36 60 -143 l7 -97 38 0
39 0 0 126 c0 125 0 126 -29 155 -33 33 -75 37 -127 15z"/>
<path d="M4865 1301 c-40 -18 -65 -53 -65 -90 0 -33 34 -62 99 -84 73 -25 86
-42 45 -58 -27 -10 -42 -8 -121 16 -20 7 -23 4 -23 -23 0 -37 20 -51 88 -59
96 -11 182 37 182 101 -1 47 -23 67 -97 91 -68 22 -82 39 -51 59 16 10 39 6
121 -21 16 -5 18 -1 15 28 -2 24 -10 37 -28 46 -36 18 -119 15 -165 -6z"/>
<path d="M870 1261 c0 -69 -7 -81 -44 -81 -17 0 -42 -7 -54 -16 -28 -19 -70
-100 -78 -151 -5 -36 -4 -39 31 -58 21 -11 61 -45 90 -77 l52 -58 92 0 c111 0
121 -4 255 -112 94 -76 131 -98 162 -98 31 0 10 31 -75 109 -52 47 -91 91 -93
104 -3 19 -14 24 -80 38 -43 8 -80 18 -83 21 -3 3 6 20 21 37 l27 32 -43 102
c-65 154 -101 218 -135 238 -16 11 -33 19 -37 19 -5 0 -8 -22 -8 -49z m80
-162 c0 -25 -45 -123 -65 -139 -8 -7 -21 -10 -28 -7 -19 7 -80 135 -73 153 4
10 25 14 86 14 74 0 80 -2 80 -21z m100 -144 c0 -9 -12 -21 -27 -27 -16 -7
-45 -23 -65 -35 -21 -13 -40 -23 -44 -23 -23 0 100 99 124 100 6 0 12 -7 12
-15z"/>
<path d="M3870 1160 l0 -150 45 0 45 0 0 150 0 150 -45 0 -45 0 0 -150z"/>
<path d="M540 665 c-69 -58 -142 -123 -164 -146 -34 -36 -38 -45 -32 -77 8
-50 35 -75 85 -75 49 0 58 7 131 103 66 87 90 130 90 162 0 36 25 64 93 102
l62 36 -70 -1 -70 0 -125 -104z"/>
<path d="M950 766 c0 -3 27 -21 59 -40 60 -37 71 -51 71 -90 0 -25 55 -115
127 -208 47 -62 85 -78 135 -59 33 12 62 64 52 94 -9 31 -84 107 -194 196
-130 105 -141 111 -200 111 -27 0 -50 -2 -50 -4z"/>
<path d="M778 704 l-78 -45 0 -93 0 -94 80 -46 c43 -25 83 -46 89 -46 22 0
156 88 160 105 1 10 0 56 -4 101 l-7 83 -61 34 c-93 52 -93 52 -179 1z m92
-69 c0 -30 -3 -55 -6 -55 -19 0 -84 46 -84 60 0 16 51 48 78 49 8 1 12 -16 12
-54z"/>
<path d="M1947 730 c-16 -13 -27 -31 -27 -46 0 -15 -6 -24 -15 -24 -9 0 -15
-9 -15 -25 0 -16 6 -25 15 -25 12 0 15 -16 15 -85 l0 -85 35 0 35 0 0 85 c0
84 0 85 25 85 20 0 25 5 25 25 0 20 -5 25 -26 25 -40 0 -28 34 14 38 28 3 33
7 30 25 -4 32 -74 36 -111 7z"/>
<path d="M3060 705 l0 -46 -35 7 c-75 14 -125 -34 -125 -121 0 -38 5 -52 29
-76 31 -31 75 -38 112 -19 13 7 19 7 19 0 0 -5 16 -10 35 -10 l35 0 0 155 0
155 -35 0 c-35 0 -35 0 -35 -45z m-2 -144 c3 -58 -5 -71 -45 -71 -26 0 -43 27
-43 66 0 37 28 66 59 62 24 -3 26 -7 29 -57z"/>
<path d="M3610 705 l0 -46 -35 7 c-75 14 -125 -34 -125 -121 0 -38 5 -52 29
-76 31 -31 75 -38 112 -19 13 7 19 7 19 0 0 -5 16 -10 35 -10 l35 0 0 155 0
155 -35 0 c-35 0 -35 0 -35 -45z m-2 -144 c3 -58 -5 -71 -45 -71 -26 0 -43 27
-43 66 0 37 28 66 59 62 24 -3 26 -7 29 -57z"/>
<path d="M4214 730 c-34 -13 -64 -59 -64 -97 0 -68 81 -115 141 -83 30 17 24
-14 -8 -40 -22 -17 -37 -21 -71 -17 -42 5 -43 4 -40 -22 3 -23 8 -26 50 -29
25 -2 62 4 82 12 94 39 116 216 33 266 -33 21 -87 25 -123 10z m86 -59 c5 -11
10 -33 10 -50 0 -27 -3 -31 -28 -31 -35 0 -52 16 -52 50 0 48 49 69 70 31z"/>
<path d="M4494 730 c-34 -13 -64 -59 -64 -97 0 -68 81 -115 141 -83 30 17 24
-14 -8 -40 -22 -17 -37 -21 -71 -17 -42 5 -43 4 -40 -22 3 -23 8 -26 50 -29
25 -2 62 4 82 12 94 39 116 216 33 266 -33 21 -87 25 -123 10z m86 -59 c5 -11
10 -33 10 -50 0 -27 -3 -31 -28 -31 -35 0 -52 16 -52 50 0 48 49 69 70 31z"/>
<path d="M4765 725 c-16 -9 -33 -22 -37 -28 -14 -22 -8 -66 12 -85 20 -18 20
-19 -5 -40 -32 -28 -32 -63 -1 -99 22 -26 30 -28 94 -28 61 0 74 3 96 24 34
32 35 84 3 113 l-23 21 23 23 c29 29 29 46 0 80 -30 34 -115 44 -162 19z m103
-64 c5 -36 -11 -45 -47 -27 -34 18 -37 26 -19 44 21 21 63 10 66 -17z m1 -116
c16 -15 9 -43 -14 -51 -44 -17 -92 29 -64 62 14 17 55 11 78 -11z"/>
<path d="M3966 715 c-3 -9 -19 -18 -36 -21 -23 -5 -30 -12 -30 -30 0 -20 5
-24 30 -24 l30 0 0 -75 0 -75 -30 0 c-25 0 -30 -4 -30 -25 l0 -25 100 0 100 0
0 25 c0 21 -5 25 -30 25 l-30 0 0 120 0 120 -34 0 c-21 0 -36 -6 -40 -15z"/>
<path d="M2134 660 c-67 -27 -86 -125 -36 -181 37 -41 110 -51 158 -20 67 42
67 151 1 191 -33 21 -87 25 -123 10z m84 -52 c7 -7 12 -30 12 -53 0 -46 -13
-65 -47 -65 -25 0 -43 26 -43 65 0 55 45 86 78 53z"/>
<path d="M2728 654 c-16 -8 -28 -10 -28 -4 0 5 -16 10 -35 10 l-35 0 0 -110 0
-110 35 0 35 0 0 80 c0 77 1 80 25 86 48 12 55 1 55 -86 l0 -80 35 0 35 0 0
95 c0 82 -3 98 -20 115 -23 23 -64 25 -102 4z"/>
<path d="M3244 661 c-38 -17 -64 -60 -64 -108 0 -82 76 -127 179 -107 41 8 46
12 49 38 3 24 1 28 -15 21 -44 -18 -103 -18 -123 0 -11 10 -20 22 -20 27 0 4
37 8 81 8 l82 0 -6 41 c-8 57 -34 81 -94 85 -26 2 -58 0 -69 -5z m84 -53 c21
-21 13 -28 -33 -28 -25 0 -45 4 -45 8 0 15 24 32 45 32 12 0 26 -5 33 -12z"/>
<path d="M2350 575 c0 -78 2 -88 25 -110 28 -29 70 -32 103 -9 20 14 22 14 22
0 0 -12 10 -16 35 -16 l35 0 0 110 0 110 -35 0 -34 0 -3 -77 c-3 -73 -5 -78
-26 -81 -40 -6 -52 14 -52 89 l0 69 -35 0 -35 0 0 -85z"/>
<path d="M958 376 l-88 -50 0 -110 0 -110 44 86 c24 47 64 118 90 158 26 40
46 73 44 75 -2 1 -42 -21 -90 -49z"/>
</g>
</svg>
